<svg width="12" height="12" viewBox="0 0 12 12" fill="none" xmlns="http://www.w3.org/2000/svg">
<circle cx="6" cy="6" r="5.5" stroke="#5E5E5E"/>
<path fill-rule="evenodd" clip-rule="evenodd" d="M8.68284 4.11721C8.75783 4.19222 8.79996 4.29394 8.79996 4.40001C8.79996 4.50607 8.75783 4.60779 8.68284 4.68281L5.48284 7.88281C5.40783 7.95779 5.30611 7.99992 5.20004 7.99992C5.09398 7.99992 4.99225 7.95779 4.91724 7.88281L3.31724 6.28281C3.24438 6.20737 3.20406 6.10632 3.20497 6.00145C3.20588 5.89657 3.24795 5.79624 3.32211 5.72208C3.39628 5.64792 3.4966 5.60585 3.60148 5.60494C3.70636 5.60403 3.8074 5.64434 3.88284 5.71721L5.20004 7.03441L8.11724 4.11721C8.19225 4.04222 8.29398 4.00009 8.40004 4.00009C8.50611 4.00009 8.60783 4.04222 8.68284 4.11721Z" fill="#5E5E5E"/>
</svg>
